<?xml version="1.0" standalone="no"?>
<!DOCTYPE svg PUBLIC "-//W3C//DTD SVG 1.1//EN" "http://www.w3.org/Graphics/SVG/1.1/DTD/svg11.dtd"><svg t="1666247966146"
    class="icon" viewBox="0 0 1024 1024" version="1.1" xmlns="http://www.w3.org/2000/svg" p-id="3379"
    xmlns:xlink="http://www.w3.org/1999/xlink" width="256" height="256">
    <path d="M213.333333 128h597.333334v768l-298.666667-177.344L213.333333 896V128z" fill="#fff" p-id="3380"></path>
    <path
        d="M170.666667 128a42.666667 42.666667 0 0 1 42.666666-42.666667h597.333334a42.666667 42.666667 0 0 1 42.666666 42.666667v768a42.666667 42.666667 0 0 1-64.448 36.693333L512 768.298667 235.114667 932.693333A42.666667 42.666667 0 0 1 170.666667 896V128z m85.333333 42.666667v650.368l234.218667-139.050667a42.666667 42.666667 0 0 1 43.562666 0L768 821.034667V170.666667H256z"
        fill="#fff" p-id="3381"></path>
    <path d="M682.666667 384H341.333333v-85.333333h341.333334v85.333333z" fill="#fff" p-id="3382"></path>
</svg>
