<?xml version="1.0" standalone="no"?><!DOCTYPE svg PUBLIC "-//W3C//DTD SVG 1.1//EN" "http://www.w3.org/Graphics/SVG/1.1/DTD/svg11.dtd"><svg t="1689214896436" class="icon" viewBox="0 0 1024 1024" version="1.1" xmlns="http://www.w3.org/2000/svg" p-id="13138" xmlns:xlink="http://www.w3.org/1999/xlink" width="64" height="64"><path d="M512 51.2c254.08 0 460.8 206.72 460.8 460.8s-206.72 460.8-460.8 460.8c-254.1056 0-460.8-206.72-460.8-460.8S257.8944 51.2 512 51.2M512 0c-282.7776 0-512 229.2224-512 512s229.2224 512 512 512 512-229.2224 512-512S794.752 0 512 0L512 0z" p-id="13139"></path><path d="M307.2 307.2l76.8 0 0 409.6-76.8 0 0-409.6Z" p-id="13140"></path><path d="M640 307.2l76.8 0 0 409.6-76.8 0 0-409.6Z" p-id="13141"></path></svg>