<?xml version="1.0" encoding="UTF-8"?>
<svg width="20px" height="20px" viewBox="0 0 20 20" version="1.1" xmlns="http://www.w3.org/2000/svg" xmlns:xlink="http://www.w3.org/1999/xlink">
    <title>close-circle_icon</title>
    <g id="页面-1" stroke="none" stroke-width="1" fill="none" fill-rule="evenodd">
        <g id="淄矿-首页-竖版" transform="translate(-1786.000000, -9.000000)" fill-rule="nonzero">
            <g id="注销" transform="translate(1780.000000, 9.000000)">
                <g id="close-circle_icon" transform="translate(6.000000, 0.000000)">
                    <rect id="矩形" fill="#000000" opacity="0" x="0" y="0" width="20" height="20"></rect>
                    <path d="M13.3867187,6.9296875 C13.3867187,6.84375 13.3164062,6.7734375 13.2304687,6.7734375 L11.9414062,6.77929687 L10,9.09375 L8.06054688,6.78125 L6.76953125,6.77539062 C6.68359375,6.77539062 6.61328125,6.84375 6.61328125,6.93164062 C6.61328125,6.96875 6.62695312,7.00390625 6.65039062,7.03320312 L9.19140625,10.0605469 L6.65039062,13.0859375 C6.62695312,13.1152344 6.61328125,13.1503906 6.61328125,13.1875 C6.61328125,13.2734375 6.68359375,13.34375 6.76953125,13.34375 L8.06054688,13.3378906 L10,11.0234375 L11.9394531,13.3359375 L13.2285156,13.3417969 C13.3144531,13.3417969 13.3847656,13.2734375 13.3847656,13.1855469 C13.3847656,13.1484375 13.3710937,13.1132812 13.3476562,13.0839844 L10.8105469,10.0585937 L13.3515625,7.03125 C13.375,7.00390625 13.3867187,6.96679687 13.3867187,6.9296875 Z" id="路径" fill="#2B7DFF"></path>
                    <path d="M10,1.26953125 C5.16796875,1.26953125 1.25,5.1875 1.25,10.0195312 C1.25,14.8515625 5.16796875,18.7695312 10,18.7695312 C14.8320312,18.7695312 18.75,14.8515625 18.75,10.0195312 C18.75,5.1875 14.8320312,1.26953125 10,1.26953125 Z M10,17.2851562 C5.98828125,17.2851562 2.734375,14.03125 2.734375,10.0195312 C2.734375,6.0078125 5.98828125,2.75390625 10,2.75390625 C14.0117187,2.75390625 17.265625,6.0078125 17.265625,10.0195312 C17.265625,14.03125 14.0117187,17.2851562 10,17.2851562 Z" id="形状" fill="#2B7DFF"></path>
                </g>
            </g>
        </g>
    </g>
</svg>