<?xml version="1.0" standalone="no"?><!DOCTYPE svg PUBLIC "-//W3C//DTD SVG 1.1//EN" "http://www.w3.org/Graphics/SVG/1.1/DTD/svg11.dtd"><svg t="1697188168218" class="icon" viewBox="0 0 1024 1024" version="1.1" xmlns="http://www.w3.org/2000/svg" p-id="5815" xmlns:xlink="http://www.w3.org/1999/xlink" width="200" height="200"><path d="M545.21944 348.6c-27.4-28.7-62-42.6-93.3-61.6-14.5-8.7-29.3-16.9-43.1-26.6-30.2-21.2-37.7-47.4-22-73.1 16.4-27 50.7-35.5 80.9-19.3 13.9 7.5 27.3 16.2 40.5 24.9 87.3 57.4 183.7 98.7 272 154.3 16.9 10.6 30.6 22.8 37.6 41.2 11.9 31.2-3.6 58.4-35.9 67.7-34.4 9.9-69.4 5.7-104.2 5.5-24.3-0.2-34.4 3.8-27.4 32.3 17.4 71.2 4 132.6-65.8 171.4-13.2 7.3-15.2 16.7-10.7 31.7 15.7 51.9-5.4 80-59 80.6-39.1 0.5-78.3 0.1-117.5 0.1-29.2 0-52.4-9.2-59.9-40.6-8.1-33.9 4.2-62.5 32.9-78.6 50.7-28.6 101.2-57.4 152-85.6 16.3-9.1 26-21.2 24.1-40.7-1.2-12.5-6.5-23-17.8-28.2-12.6-5.8-19.2 5.2-26.1 12.8-87.4 96.8-198.5 131.7-325.4 124.6-13.6-0.8-24.8 3.7-35.9 10.1-19.2 11.2-37.6 23.9-57.7 33.3-33.9 15.9-60.5 6.2-77-25.7C-7.38056 632 1.01944 604.8 31.01944 586.8c28.1-16.9 57.2-32.1 85.8-48 17.5-9.8 36.1-10.3 55.5-7.3 111.6 17.2 228.2-38.2 281.6-136.6 20.5-37.6 51.3-47.2 91.3-46.3z" fill="#04ACF1" p-id="5816"></path><path d="M813.31944 296.5c1.1-60.6 47-104.1 108.7-103.3 57.2 0.8 103 48.9 102 107.3-1 57.9-49.4 104.9-106 103-62.2-2.3-105.9-46.8-104.7-107z" fill="#EE1922" p-id="5817"></path><path d="M456.61944 828.7c-30.7 0-61.4 0.4-92-0.2-11.5-0.2-25.9-1.2-24.6-17.5 1.1-14.1 14.8-12.7 25-13.3 62.3-4 124.5 7.1 186.9 0.5 10-1.1 23.8-0.5 24.8 13.5 1.2 16.7-13.6 16.7-24.9 16.9-31.7 0.5-63.5 0.1-95.2 0.1z" fill="#04ACF1" p-id="5818"></path></svg>