<?xml version="1.0" standalone="no"?><!DOCTYPE svg PUBLIC "-//W3C//DTD SVG 1.1//EN" "http://www.w3.org/Graphics/SVG/1.1/DTD/svg11.dtd"><svg t="1697960212912" class="icon" viewBox="0 0 1024 1024" version="1.1" xmlns="http://www.w3.org/2000/svg" p-id="9348" xmlns:xlink="http://www.w3.org/1999/xlink" width="200" height="200"><path d="M960.7 84.2H384.3c0-35.4-28.7-64.1-64-64.1H64.1C28.7 20.1 0 48.8 0 84.2v192.1c0 35.4 28.7 64.1 64.1 64.1h896.6c35.4 0 64.1-28.7 64.1-64.1V148.2c0-35.4-28.7-64-64.1-64z m0 0" fill="#E2A037" p-id="9349"></path><path d="M896.7 148.2H128.1c-35.4 0-64.1 28.7-64.1 64v64.1c0 35.4 28.7 64.1 64.1 64.1h768.5c35.4 0 64-28.7 64-64.1v-64.1c0.1-35.3-28.5-64-63.9-64z m0 0" fill="#FFFFFF" p-id="9350"></path><path d="M960.7 212.2H64.1c-35.4 0-64.1 28.7-64.1 64.1v640.5c0 35.3 28.7 64 64.1 64h896.6c35.4 0 64.1-28.7 64.1-64V276.3c0-35.4-28.7-64.1-64.1-64.1z m0 0" fill="#FFBD5C" p-id="9351"></path></svg>