<?xml version="1.0" standalone="no"?><!DOCTYPE svg PUBLIC "-//W3C//DTD SVG 1.1//EN" "http://www.w3.org/Graphics/SVG/1.1/DTD/svg11.dtd"><svg t="1675753441259" class="icon" viewBox="0 0 1024 1024" version="1.1" xmlns="http://www.w3.org/2000/svg" p-id="1098" xmlns:xlink="http://www.w3.org/1999/xlink" width="256" height="256"><path d="M512 96C282.2 96 96 282.2 96 512c0 229.8 186.2 416 416 416 229.8 0 416-186.2 416-416C928 282.2 741.8 96 512 96zM503 304c22.2 0 40 18 40 40s-18 40-40 40c-22 0-40-18-40-40S480.8 304 503 304zM576 704l-128 0 0-16 32 0L480 448l-32 0 0-16 96 0 0 256 32 0L576 704z" p-id="1099"></path></svg>