<?xml version="1.0" standalone="no"?><!DOCTYPE svg PUBLIC "-//W3C//DTD SVG 1.1//EN" "http://www.w3.org/Graphics/SVG/1.1/DTD/svg11.dtd"><svg t="1675753445662" class="icon" viewBox="0 0 1024 1024" version="1.1" xmlns="http://www.w3.org/2000/svg" p-id="1252" xmlns:xlink="http://www.w3.org/1999/xlink" width="256" height="256"><path d="M341.436 432.964 283.2 491.2 470.4 678.4l416-416-58.236-58.236L470.4 559.836 341.436 432.964zM844.8 512c0 183.036-149.766 332.8-332.8 332.8S179.2 695.036 179.2 512 328.964 179.2 512 179.2c31.2 0 62.4 4.164 91.528 12.482L668 127.2C620.164 106.4 568.164 96 512 96 283.2 96 96 283.2 96 512s187.2 416 416 416 416-187.2 416-416L844.8 512z" p-id="1253"></path></svg>