<?xml version="1.0" standalone="no"?>
<!DOCTYPE svg PUBLIC "-//W3C//DTD SVG 1.1//EN" "http://www.w3.org/Graphics/SVG/1.1/DTD/svg11.dtd"><svg t="1696837276983"
    class="icon" viewBox="0 0 1024 1024" version="1.1" xmlns="http://www.w3.org/2000/svg" p-id="15161"
    xmlns:xlink="http://www.w3.org/1999/xlink" width="200" height="200">
    <path
        d="M309.333333 192h149.333334a32 32 0 0 1 4.309333 63.701333L458.666667 256h-149.333334a95.957333 95.957333 0 0 0-95.658666 87.893333L213.333333 350.72l0.128 363.946667A96 96 0 0 0 302.933333 810.453333l6.570667 0.213334 362.581333-0.512a96 96 0 0 0 95.658667-89.429334l0.213333-6.570666v-149.589334a32 32 0 0 1 63.701334-4.352l0.298666 4.352v149.589334a160 160 0 0 1-151.296 159.786666l-8.533333 0.213334-362.453333 0.512-8.661334-0.213334a160 160 0 0 1-151.338666-151.253333l-0.213334-8.533333-0.085333-362.538667 0.170667-8.661333a160 160 0 0 1 151.296-151.253334l8.533333-0.213333h149.290667-149.333334z m277.248-63.957333h279.637334l4.266666 0.64 4.266667 1.194666 2.432 1.024a30.122667 30.122667 0 0 1 6.485333 3.84l2.986667 2.688 3.541333 4.224 2.304 3.84 1.706667 3.84 0.768 2.773334 0.597333 2.688 0.426667 4.053333v278.698667a32 32 0 0 1-63.701333 4.352l-0.298667-4.352-0.042667-200.277334-308.053333 308.181334a32 32 0 0 1-41.642667 3.114666l-3.584-3.072a32 32 0 0 1-3.114666-41.685333l3.114666-3.584 307.968-308.181333h-200.064a32 32 0 0 1-31.701333-27.648l-0.298667-4.352a32 32 0 0 1 27.648-31.701334l4.352-0.298666z"
        p-id="15162"></path>
</svg>
